<svg id="Capa_1" data-name="Capa 1" xmlns="http://www.w3.org/2000/svg" xmlns:xlink="http://www.w3.org/1999/xlink" viewBox="0 0 741 166.45"><defs><style>.cls-1,.cls-4{fill:none;}.cls-2{clip-path:url(#clip-path);}.cls-3{fill:#f29f05;}.cls-4{stroke:#3d3d3c;stroke-miterlimit:10;stroke-width:12px;}.cls-5{fill:#efefef;}.cls-6{fill:#4c4c4c;}</style><clipPath id="clip-path" transform="translate(-29.22 -293.91)"><rect class="cls-1" width="800" height="800"/></clipPath></defs><title>MC_LOGO_DEFI</title><g class="cls-2"><path class="cls-3" d="M726.33,454.36H73.1a37.88,37.88,0,0,1-37.88-37.89V337.8A37.88,37.88,0,0,1,73.1,299.91H726.33a37.89,37.89,0,0,1,37.89,37.89v78.67a37.89,37.89,0,0,1-37.89,37.89" transform="translate(-29.22 -293.91)"/><rect class="cls-4" x="6" y="6" width="729" height="154.45" rx="37.89"/></g><path class="cls-5" d="M75.78,427.36V324.24h31.41l8.67,62.87,8.62-62.87h31.7V427.36H137.31v-74.3l-11.84,74.3H107l-12.54-74.3v74.3Z" transform="translate(-29.22 -293.91)"/><path class="cls-5" d="M162.5,427.36l10-103.12h35l9.79,103.12H197.72l-1.47-16.64H183.83l-1.29,16.64Zm22.8-33.11h9.37l-4.51-52.44h-.94Z" transform="translate(-29.22 -293.91)"/><path class="cls-5" d="M223.56,427.36V324.24H255.2q7.91,0,11.95,3.6a18,18,0,0,1,5.42,10.08,73.6,73.6,0,0,1,1.38,15.2q0,8.44-2.14,13.48a12.36,12.36,0,0,1-8.06,7,9.25,9.25,0,0,1,6.83,4.84,21.74,21.74,0,0,1,2,9.93v39H252.21V387c0-3-.61-4.87-1.85-5.6s-3.21-1.08-5.94-1.08v47.05Zm21-64.92h5q4.28,0,4.27-9.32,0-6-.94-7.91a3.54,3.54,0,0,0-3.51-1.87h-4.81Z" transform="translate(-29.22 -293.91)"/><path class="cls-5" d="M304.77,428.3q-11.19,0-18-7t-6.82-19.52V354.24q0-15,5.94-23t19.37-8a30.26,30.26,0,0,1,13,2.69,20.73,20.73,0,0,1,9,8.06q3.28,5.35,3.28,13.51v17.81H310V350.13q0-4.62-1.17-6.24a4.2,4.2,0,0,0-3.63-1.61c-1.92,0-3.21.7-3.87,2.08a13,13,0,0,0-1,5.54v51.62q0,4.28,1.26,6a4.17,4.17,0,0,0,3.61,1.75,3.82,3.82,0,0,0,3.72-2.16,12.66,12.66,0,0,0,1.08-5.63V383h20.74v19.51q0,13.59-6.85,19.71T304.77,428.3Z" transform="translate(-29.22 -293.91)"/><path class="cls-5" d="M362.25,428.3q-12.36,0-18.9-7.47t-6.53-21.59v-49q0-13.25,6.47-20.1t19-6.85q12.48,0,18.95,6.85t6.48,20.1v49q0,14.11-6.53,21.59T362.25,428.3Zm.18-19q4.68,0,4.68-9.08V349.9q0-7.62-4.57-7.62-5.16,0-5.15,7.8v50.27c0,3.2.39,5.5,1.17,6.88A4.08,4.08,0,0,0,362.43,409.31Z" transform="translate(-29.22 -293.91)"/><path class="cls-6" d="M432.81,428.3q-11.19,0-18-7T408,401.81V354.24q0-15,6-23t19.37-8a30.26,30.26,0,0,1,13,2.69,20.73,20.73,0,0,1,9,8.06q3.29,5.35,3.28,13.51v17.81H438.08V350.13q0-4.62-1.17-6.24a4.2,4.2,0,0,0-3.63-1.61c-1.92,0-3.21.7-3.87,2.08a13,13,0,0,0-1,5.54v51.62q0,4.28,1.26,6a4.17,4.17,0,0,0,3.61,1.75,3.83,3.83,0,0,0,3.72-2.16,12.66,12.66,0,0,0,1.08-5.63V383h20.74v19.51q0,13.59-6.85,19.71T432.81,428.3Z" transform="translate(-29.22 -293.91)"/><path class="cls-6" d="M462.87,427.36l10-103.12h35l9.78,103.12H498.08l-1.46-16.64H484.2l-1.29,16.64Zm22.79-33.11H495l-4.52-52.44h-.93Z" transform="translate(-29.22 -293.91)"/><path class="cls-6" d="M548.41,428.3q-14.11,0-20.36-7t-6.24-22.39V388.81H542.2V401.7a11.85,11.85,0,0,0,1.09,5.59,3.91,3.91,0,0,0,3.78,2c1.87,0,3.17-.54,3.89-1.64s1.09-2.89,1.09-5.39a28.83,28.83,0,0,0-.94-7.94,17.86,17.86,0,0,0-3.25-6.09,70.27,70.27,0,0,0-6.42-6.77l-9.26-8.79q-10.36-9.78-10.37-22.38,0-13.19,6.13-20.1t17.72-6.91q14.18,0,20.13,7.56t5.94,23h-21v-7.09a4.4,4.4,0,0,0-1.2-3.29,4.47,4.47,0,0,0-3.26-1.17,4.41,4.41,0,0,0-3.6,1.38,5.37,5.37,0,0,0-1.14,3.54,11.2,11.2,0,0,0,1.17,4.69,20.56,20.56,0,0,0,4.63,5.8l11.89,11.43a68.24,68.24,0,0,1,6.57,7.18,31.29,31.29,0,0,1,4.8,8.78,36.09,36.09,0,0,1,1.82,12.22q0,14.54-5.36,22.77T548.41,428.3Z" transform="translate(-29.22 -293.91)"/><path class="cls-6" d="M588.14,427.36V344H575.89v-19.8H621V344H608.77v83.32Z" transform="translate(-29.22 -293.91)"/><path class="cls-6" d="M626.75,427.36V324.24h31.64q7.92,0,12,3.6a18.1,18.1,0,0,1,5.42,10.08,74.35,74.35,0,0,1,1.37,15.2q0,8.44-2.13,13.48a12.39,12.39,0,0,1-8.06,7,9.27,9.27,0,0,1,6.83,4.84,21.87,21.87,0,0,1,2,9.93v39H655.41V387c0-3-.62-4.87-1.85-5.6s-3.21-1.08-5.95-1.08v47.05Zm21-64.92h5q4.27,0,4.28-9.32c0-4-.32-6.66-.94-7.91a3.55,3.55,0,0,0-3.51-1.87h-4.81Z" transform="translate(-29.22 -293.91)"/><path class="cls-6" d="M708.55,428.3q-12.36,0-18.9-7.47t-6.53-21.59v-49q0-13.25,6.48-20.1t18.95-6.85q12.48,0,19,6.85t6.47,20.1v49q0,14.11-6.53,21.59T708.55,428.3Zm.18-19q4.68,0,4.68-9.08V349.9q0-7.62-4.57-7.62-5.15,0-5.15,7.8v50.27c0,3.2.39,5.5,1.17,6.88A4.08,4.08,0,0,0,708.73,409.31Z" transform="translate(-29.22 -293.91)"/></svg>